<svg id="Layer_1" data-name="Layer 1" xmlns="http://www.w3.org/2000/svg" xmlns:xlink="http://www.w3.org/1999/xlink" viewBox="0 0 379.15 287.74"><defs><style>.cls-1,.cls-2,.cls-3,.cls-4,.cls-5,.cls-6{fill:none;stroke-miterlimit:10;}.cls-1,.cls-2,.cls-3{stroke-width:40px;}.cls-1{stroke:url(#linear-gradient);}.cls-2{stroke:#ed1c24;}.cls-3{stroke:url(#linear-gradient-2);}.cls-4,.cls-5,.cls-6{stroke:#fff;}.cls-4{stroke-width:2px;}.cls-5{stroke-width:12px;}.cls-6{stroke-width:10px;}.cls-7{fill:#0a7b3e;}.cls-8{fill:#acd037;}.cls-9{fill:#754e1f;}</style><linearGradient id="linear-gradient" x1="320.9" y1="243.27" x2="505.48" y2="349.83" gradientUnits="userSpaceOnUse"><stop offset="0.02" stop-color="#f7941d"/><stop offset="0.83" stop-color="#ed1c24"/></linearGradient><linearGradient id="linear-gradient-2" x1="486.98" y1="374.17" x2="553.1" y2="374.17" gradientUnits="userSpaceOnUse"><stop offset="0" stop-color="#ed1c24"/><stop offset="1" stop-color="#ee2424"/><stop offset="1" stop-color="#f7941d"/></linearGradient></defs><path class="cls-1" d="M495.47,308.28c-1.76-8-3.81-17-6.3-27.18-3.64-14.83-9.7-38.06-22.46-54.35-3.42-4.36-13-16.6-29.71-23.18-1.42-.57-2.62-1-3.44-1.25s-2.26-.7-3.95-1.16A94.49,94.49,0,0,0,411,198.49c-26.42-.64-44.41,16.41-49.36,21-26.38,24.51-27.17,59.64-27.49,74-.48,21.21,4.34,36.54,5.54,40.1,3.52,10.4,10.17,30.05,28.47,43.85,20.53,15.47,49.29,18.73,72.46,10.14,33.43-12.38,55.64-49.55,52.22-91.09" transform="translate(-173.95 -124.53)"/><path class="cls-2" d="M506,356.25c-3.43-10.25-5.9-25.28-10.7-48.47" transform="translate(-173.95 -124.53)"/><path class="cls-3" d="M549.77,377.93c-15.94,2.69-25.45-.77-31.16-4.35-6.18-3.88-9.81-9.1-12.77-17.49" transform="translate(-173.95 -124.53)"/><path class="cls-4" d="M756.57,487.62" transform="translate(-173.95 -124.53)"/><path class="cls-5" d="M479,339.07" transform="translate(-173.95 -124.53)"/><path class="cls-6" d="M490.34,381.63a105.61,105.61,0,0,1-7.07-14c-13.5-32.4-12.29-75.64-20.17-76.8a5.88,5.88,0,0,1-3.32-1.11c-2.36-1.93-1.51-5.43-2.22-7.75-2-6.54-18.78-11.46-25.33-5.53-5.64,5.11-5.19,19.64,6.64,31" transform="translate(-173.95 -124.53)"/><path class="cls-7" d="M174,265.21a189.17,189.17,0,0,1,31.29-44.62L207.6,218l2.45-2.48c1.64-1.64,3.25-3.35,5-4.92l5.14-4.81,5.36-4.57A146.62,146.62,0,0,1,249,185.41c4.11-2.39,8.38-4.45,12.62-6.65,2.12-1.13,4.32-2,6.48-3.06s4.39-1.88,6.62-2.74a89.27,89.27,0,0,1,28-5.67,108.88,108.88,0,0,1,28.61,2.45c9.4,2.19,18.6,5.41,27.14,11.07l-.22,4.78c-2.21,1.26-4.37,2.38-6.51,3.42l-3.17,1.54c-1.05.51-2.09.94-3.13,1.45-4.14,1.91-8.18,3.64-12.14,5.34-7.93,3.33-15.55,6.37-23,9.24a191,191,0,0,1-22.47,7.21c-7.6,1.88-15.36,3.69-22.82,6.43s-14.92,5.62-22.48,8.66a212.43,212.43,0,0,0-22.42,10.49,249.2,249.2,0,0,0-21.59,13.21q-10.57,7.25-20.78,15.6Z" transform="translate(-173.95 -124.53)"/><path class="cls-8" d="M176.45,266.42a223.76,223.76,0,0,1,36.59-37l2.55-2,2.62-2c1.75-1.29,3.45-2.65,5.27-3.86l5.37-3.71,5.52-3.51a209.3,209.3,0,0,1,23-12.42,201.53,201.53,0,0,1,101.71-19v.2a243.67,243.67,0,0,0-51.67,4.62A226.92,226.92,0,0,0,258,203.33a207.63,207.63,0,0,0-23,12.08l-5.53,3.42-5.38,3.63c-1.82,1.18-3.53,2.52-5.29,3.78l-2.63,1.92-2.56,2a223.38,223.38,0,0,0-37,36.39Z" transform="translate(-173.95 -124.53)"/><path class="cls-9" d="M359.73,124.53a71.41,71.41,0,0,0,.47,8,63.57,63.57,0,0,0,1.28,7.14,69,69,0,0,0,4.61,13.06,51.78,51.78,0,0,0,7.29,11.67,41.46,41.46,0,0,0,5.06,5.13A31.43,31.43,0,0,0,385,174l-22.41,11.08a30.27,30.27,0,0,0,.45-7.83,41.56,41.56,0,0,0-1-7.11,50,50,0,0,0-5-12.78A62,62,0,0,0,349.19,146a50.63,50.63,0,0,0-5-5,23.85,23.85,0,0,0-6.06-4Z" transform="translate(-173.95 -124.53)"/></svg>