<?xml version="1.0" standalone="no"?>
<!DOCTYPE svg PUBLIC "-//W3C//DTD SVG 20010904//EN"
 "http://www.w3.org/TR/2001/REC-SVG-20010904/DTD/svg10.dtd">
<svg version="1.0" xmlns="http://www.w3.org/2000/svg"
 width="900.000000pt" height="522.000000pt" viewBox="0 0 900.000000 522.000000"
 preserveAspectRatio="xMidYMid meet">

<g transform="translate(0.000000,522.000000) scale(0.100000,-0.100000)"
fill="#000000" stroke="none">
<path d="M4009 4833 c-1 -4 -1 -10 -1 -13 0 -3 -18 -6 -41 -7 -38 -2 -82 -9
-82 -13 0 -1 -13 -3 -30 -3 -16 -1 -36 -6 -44 -11 -11 -7 -12 -6 -6 5 8 12 6
12 -8 0 -9 -7 -17 -10 -17 -6 0 5 -8 1 -17 -7 -10 -8 -36 -16 -57 -16 -22 -1
-43 -7 -48 -14 -4 -7 -8 -9 -8 -4 0 4 -9 -2 -20 -15 -14 -17 -19 -20 -20 -9 0
13 -1 13 -10 0 -6 -10 -10 -11 -10 -2 0 6 -5 12 -11 12 -5 0 -8 -4 -5 -9 3 -5
-1 -12 -10 -15 -10 -4 -13 -2 -8 7 5 9 4 9 -7 0 -7 -7 -19 -13 -25 -13 -7 0
-25 -5 -41 -12 -15 -6 -35 -12 -44 -14 -33 -7 -138 -62 -131 -69 4 -4 0 -6 -8
-4 -21 4 -60 -10 -60 -22 0 -5 -6 -9 -14 -9 -18 0 -114 -105 -151 -166 -66
-107 -87 -153 -65 -139 6 3 10 1 10 -5 0 -6 -7 -10 -16 -8 -11 2 -25 -16 -44
-59 -16 -34 -24 -63 -19 -65 5 -2 10 -15 11 -30 2 -24 4 -25 18 -13 15 13 19
15 40 15 6 0 10 7 10 16 0 8 5 12 10 9 6 -3 10 2 10 12 0 15 2 16 11 3 8 -11
9 -8 4 13 -6 30 10 61 26 51 5 -3 6 3 2 12 -5 13 -3 15 8 9 11 -7 11 -5 -1 10
-12 15 -12 17 -1 10 11 -6 13 -2 9 18 -3 15 -1 24 3 21 5 -3 9 3 9 13 0 14 2
15 9 4 7 -11 10 -9 16 8 3 12 10 19 15 16 4 -3 6 4 3 15 -3 11 -1 20 5 20 6 0
23 13 38 30 23 24 31 27 44 17 8 -6 12 -8 8 -3 -4 5 1 16 10 25 11 10 12 12 2
6 -13 -9 -13 -8 -2 7 8 9 20 14 28 11 8 -3 22 3 30 13 9 11 13 14 10 8 -3 -6
1 -11 8 -11 8 0 12 6 9 13 -4 10 2 11 24 5 34 -10 66 -6 71 9 3 7 9 4 17 -6
13 -18 50 -30 39 -13 -3 5 -9 7 -14 4 -5 -3 -12 0 -16 7 -4 7 -4 10 1 6 4 -4
14 -3 22 3 7 6 13 8 13 3 0 -5 5 -2 10 6 7 11 8 9 6 -11 -1 -13 -6 -30 -10
-37 -4 -7 8 -4 28 7 21 12 38 16 41 11 4 -6 3 -10 -1 -10 -3 0 -1 -7 6 -15 7
-9 18 -14 24 -12 12 5 57 -27 57 -40 0 -4 7 -7 16 -5 10 2 12 -1 7 -10 -4 -7
-3 -9 1 -5 16 14 14 36 -3 30 -11 -5 -13 -3 -7 7 6 9 4 11 -5 5 -10 -6 -12 -4
-7 7 4 11 0 15 -11 13 -22 -3 -44 14 -35 28 3 6 1 7 -6 3 -6 -4 -8 -12 -5 -18
4 -7 2 -8 -5 -4 -14 9 -7 22 19 36 15 8 17 7 13 -10 -3 -12 0 -20 6 -20 7 0 9
5 5 12 -5 7 -3 8 7 2 8 -5 23 -9 34 -9 11 -1 19 -7 17 -14 -1 -7 2 -10 7 -7
10 6 34 -18 26 -26 -3 -3 1 -11 10 -18 13 -11 15 -9 15 14 0 14 -4 25 -9 24
-5 -2 -9 2 -10 7 -1 6 2 10 7 10 4 0 12 3 17 6 6 3 21 5 35 5 21 -1 25 -6 25
-31 0 -17 -4 -36 -10 -44 -7 -11 -7 -13 3 -7 7 4 20 2 28 -5 12 -10 16 -9 21
9 3 12 9 19 14 16 5 -3 5 -13 -1 -24 -7 -13 -7 -21 0 -25 6 -4 10 -3 9 2 -4
22 3 30 24 29 30 -2 49 -15 41 -28 -4 -6 -2 -8 3 -5 11 7 28 -20 24 -36 -1 -5
4 -5 10 -2 8 5 8 10 0 18 -17 17 -13 24 11 23 13 -1 27 8 34 22 13 27 23 29
36 10 8 -11 9 -10 6 1 -4 14 -17 18 -65 23 -17 2 -19 5 -11 15 6 7 7 13 3 13
-5 0 -1 8 8 18 8 9 16 22 17 27 1 6 3 12 5 13 2 2 2 -3 1 -12 -1 -8 -5 -19 -9
-22 -11 -11 -8 -26 3 -19 6 3 10 -2 11 -12 0 -16 1 -16 8 2 5 11 6 24 3 29 -3
5 0 6 6 2 6 -4 9 -13 5 -22 -3 -9 0 -14 8 -12 7 2 13 -2 14 -9 0 -6 4 -15 8
-20 5 -4 8 -3 7 2 -5 21 1 27 14 16 11 -9 16 -9 22 0 5 8 3 9 -7 4 -12 -8 -12
-6 0 8 14 17 26 24 17 9 -2 -4 -1 -14 5 -22 6 -11 9 -12 9 -2 0 7 5 10 10 7 6
-3 10 -1 10 5 0 6 4 8 10 5 5 -3 7 0 5 7 -3 8 1 22 10 33 15 19 15 19 11 -6
-3 -21 -1 -26 12 -24 10 2 21 4 25 4 4 1 2 11 -4 23 -12 22 -12 22 15 5 15
-10 32 -15 38 -11 8 5 9 2 5 -9 -8 -21 22 -23 42 -4 11 10 12 9 6 -3 -8 -13
-7 -13 8 -1 9 7 17 10 17 7 0 -4 9 -2 20 4 11 6 18 15 15 21 -10 15 7 10 27
-7 15 -14 20 -15 34 -4 9 8 13 22 10 34 -4 20 -4 20 10 -1 13 -17 20 -20 44
-13 22 6 28 5 24 -5 -4 -9 1 -13 13 -11 17 3 73 -31 73 -44 0 -4 -7 -7 -15 -7
-8 0 -15 6 -15 13 0 7 -4 16 -10 19 -6 4 -7 -1 -3 -11 5 -13 3 -15 -8 -9 -10
5 -11 5 -4 -3 6 -6 17 -12 25 -14 8 -2 21 -10 28 -18 11 -13 13 -10 9 18 -2
17 0 32 5 32 4 0 7 3 7 8 -4 23 4 32 26 32 28 0 77 -28 70 -40 -2 -4 14 -7 35
-7 22 0 38 2 36 5 -3 2 5 13 17 24 14 13 16 18 6 15 -9 -3 -16 1 -16 9 0 8 5
14 10 14 5 0 3 8 -4 18 -13 15 -12 16 3 4 10 -8 26 -11 37 -7 31 10 43 -2 29
-28 -10 -19 -9 -20 4 -10 8 7 18 10 21 6 4 -3 13 0 21 6 15 13 32 -1 21 -18
-3 -5 0 -13 6 -17 7 -4 9 -3 6 3 -4 6 3 13 15 16 16 4 18 3 9 -6 -6 -6 -11
-15 -11 -21 0 -5 3 -6 7 -3 3 4 16 1 28 -7 23 -15 21 -17 27 29 1 8 5 12 10 9
4 -3 4 -13 -1 -22 -4 -9 -7 -24 -6 -34 4 -21 24 -56 25 -42 0 7 15 14 34 16
19 2 33 1 30 -3 -2 -4 4 -13 13 -20 14 -12 16 -12 9 1 -4 8 0 6 9 -5 9 -11 19
-19 23 -17 3 2 8 -2 10 -10 2 -9 0 -8 -7 2 -7 9 -11 10 -11 3 0 -6 -9 -10 -20
-8 -21 4 -23 -11 -2 -33 7 -8 10 -18 7 -23 -4 -5 1 -9 10 -9 9 0 13 -4 10 -10
-3 -5 -1 -10 4 -10 6 0 11 -13 11 -30 0 -22 5 -30 18 -30 16 0 19 8 19 47 l0
48 -12 -35 c-10 -31 -12 -32 -17 -12 -4 12 -2 20 3 16 5 -3 9 2 9 11 0 9 -4
14 -8 11 -5 -3 -9 1 -9 7 0 7 11 13 23 13 12 0 21 -3 19 -7 -3 -3 7 -11 20
-17 18 -8 23 -16 18 -29 -6 -16 -5 -17 13 -3 15 11 16 11 7 0 -7 -8 -20 -15
-28 -16 -11 -2 -12 2 -5 16 7 13 6 19 -4 23 -10 4 -13 -4 -13 -28 1 -24 5 -31
16 -27 9 3 12 1 7 -6 -3 -6 -2 -13 3 -16 5 -4 13 -1 17 5 5 8 3 9 -7 4 -8 -5
-5 1 5 13 20 23 35 31 19 10 -6 -7 -9 -26 -6 -43 2 -20 1 -26 -6 -16 -6 9 -11
10 -15 2 -7 -11 -3 -13 32 -14 20 -2 43 -28 35 -41 -4 -5 -1 -6 5 -2 7 4 12 1
12 -8 0 -8 4 -18 10 -21 11 -7 2 23 -13 43 -6 8 -6 12 1 12 12 0 34 -25 27
-32 -3 -3 5 -13 17 -24 l23 -19 -19 22 c-17 21 -18 23 -2 29 11 4 13 9 7 13
-6 4 -7 12 -1 21 8 13 10 12 10 -3 0 -12 4 -16 13 -11 6 4 3 -3 -8 -15 -14
-16 -15 -22 -5 -19 8 2 14 -3 13 -9 -2 -7 3 -12 10 -10 6 1 11 -5 9 -13 -2 -8
0 -12 4 -8 4 4 13 0 21 -10 12 -16 13 -16 6 3 -6 17 -5 18 9 5 12 -12 13 -18
4 -29 -8 -12 -8 -13 2 -7 6 4 12 3 12 -2 0 -22 -16 -20 -41 4 -18 17 -29 22
-34 14 -4 -6 -4 -14 -1 -17 3 -4 6 -1 6 5 0 7 11 2 25 -10 15 -13 23 -29 20
-38 -3 -9 1 -7 10 5 13 17 17 18 25 5 5 -8 7 -18 4 -22 -3 -4 0 -16 5 -26 6
-12 7 -23 1 -30 -7 -9 -7 -9 3 -1 6 5 12 14 12 20 0 15 20 15 21 -1 1 -8 2
-19 4 -25 1 -5 3 -21 4 -35 1 -16 6 -24 15 -22 9 2 11 -3 6 -15 -4 -10 -7 -24
-6 -30 4 -42 4 -43 18 -32 15 13 18 23 3 14 -14 -9 -12 8 3 24 9 11 9 13 0 7
-9 -5 -12 0 -10 16 1 16 -3 22 -13 20 -12 -3 -13 -1 -2 9 6 7 12 17 12 22 0 4
-6 5 -12 1 -7 -4 -10 -4 -6 1 4 4 2 15 -4 24 -7 9 -2 7 11 -4 22 -18 24 -18
18 -2 -4 11 -3 16 4 12 5 -4 7 -15 4 -25 -3 -10 -1 -21 4 -24 6 -4 8 -13 4
-21 -4 -11 0 -14 13 -9 12 4 15 3 7 -3 -7 -5 -10 -22 -7 -42 4 -25 2 -31 -7
-26 -7 5 -10 4 -6 -3 4 -5 15 -9 24 -8 24 4 43 -34 29 -54 -9 -13 -9 -13 6 -2
9 8 19 9 22 4 3 -6 -1 -13 -10 -16 -12 -5 -14 -10 -5 -20 6 -7 7 -17 3 -21 -4
-5 -1 -5 5 -1 9 5 11 2 7 -7 -3 -9 4 -21 16 -30 18 -12 19 -15 5 -21 -9 -3
-14 -10 -11 -15 3 -5 -4 -7 -16 -4 -21 5 -21 4 -7 -8 17 -15 33 -49 22 -49 -3
0 -12 8 -19 18 -13 16 -14 16 -7 -2 4 -13 3 -17 -5 -12 -6 3 -14 2 -17 -4 -5
-8 -12 -7 -23 2 -15 12 -16 11 -3 -4 7 -10 17 -16 21 -13 5 3 10 -21 12 -54 2
-44 0 -57 -9 -54 -8 3 -13 -2 -13 -12 0 -12 5 -15 18 -10 51 22 57 19 148 -82
48 -54 96 -107 106 -117 23 -26 23 -28 -9 -60 -20 -21 -24 -29 -14 -39 9 -9
16 -8 33 2 19 12 24 11 41 -10 11 -13 32 -50 48 -82 17 -33 34 -55 40 -51 6 3
9 14 6 23 -2 9 2 23 10 30 12 11 12 16 -4 34 -10 11 -13 17 -6 13 13 -7 10 24
-4 47 -11 18 -13 38 -2 31 5 -3 6 -11 3 -17 -4 -7 -3 -8 2 -4 5 5 9 16 10 25
0 10 4 36 8 59 5 26 3 49 -4 62 -9 17 -8 22 5 27 11 5 14 18 11 54 -2 26 -7
54 -11 60 -6 9 -4 11 6 5 12 -7 12 -6 1 7 -8 10 -10 26 -6 42 4 16 2 26 -5 26
-6 0 -10 3 -10 8 3 18 -2 33 -9 28 -8 -5 -11 5 -13 42 0 31 -32 121 -41 116
-4 -3 -5 1 -2 9 3 8 0 18 -5 22 -6 3 -8 11 -5 17 5 7 1 9 -8 5 -16 -5 -48 20
-48 39 0 4 7 -2 16 -14 8 -12 19 -20 24 -17 10 6 1 45 -11 45 -5 0 -9 9 -9 20
0 11 -4 20 -10 20 -5 0 -10 6 -10 13 0 7 -12 27 -27 44 -37 41 -56 69 -54 77
1 4 -5 14 -14 22 -8 9 -27 35 -41 59 -14 24 -34 47 -45 50 -11 4 -27 19 -36
33 -9 15 -31 40 -47 55 -17 16 -54 51 -83 78 -29 27 -57 49 -63 49 -5 0 -10 4
-10 9 0 5 -11 12 -25 15 -16 4 -23 11 -19 18 5 7 2 9 -9 5 -10 -4 -18 0 -22
13 -3 10 -18 21 -32 25 -21 5 -24 8 -12 16 11 7 10 9 -5 9 -10 0 -24 8 -31 17
-11 14 -17 15 -38 6 -21 -10 -25 -10 -21 1 6 16 -21 40 -36 31 -5 -3 -10 1
-10 9 0 10 -9 16 -25 16 -14 0 -28 6 -31 13 -2 7 -14 13 -25 14 -12 1 -29 9
-38 17 -10 9 -23 16 -30 16 -7 0 -18 6 -26 13 -30 28 -78 61 -91 63 -7 1 -21
9 -30 18 -17 18 -29 21 -19 7 8 -14 -47 15 -71 38 -12 10 -30 21 -40 23 -10 2
-18 10 -17 16 3 10 -32 18 -59 13 -5 0 -8 3 -8 9 0 6 -3 9 -7 8 -9 -1 -40 9
-67 23 -12 7 -16 7 -12 0 4 -7 1 -8 -8 -5 -9 3 -16 10 -16 16 0 5 -5 6 -11 3
-5 -4 -18 -1 -27 7 -9 8 -38 16 -63 17 -25 1 -55 4 -65 6 -10 2 -38 4 -62 4
-32 1 -41 4 -36 14 6 9 4 9 -8 -1 -12 -9 -18 -10 -23 -2 -5 8 -11 7 -23 -2
-12 -10 -14 -10 -8 0 4 6 3 12 -3 12 -5 0 -13 -5 -16 -10 -5 -8 -11 -8 -20 0
-7 6 -43 10 -79 9 -37 -1 -69 1 -73 4 -3 4 -13 1 -21 -6 -13 -9 -14 -9 -8 1
10 16 -26 20 -84 8 -18 -3 -29 -2 -25 3 3 5 1 12 -5 16 -5 3 -11 3 -11 -2z
m109 -38 c0 -18 -6 -25 -20 -25 -18 0 -18 1 -1 25 10 13 19 25 19 25 1 0 2
-11 2 -25z m-108 -290 c11 -13 10 -14 -4 -9 -9 4 -16 3 -15 -2 3 -17 -13 -54
-21 -49 -13 8 -4 40 10 37 6 -1 9 2 5 8 -5 9 1 30 9 30 2 0 9 -7 16 -15z m-42
-4 c2 -1 0 -7 -5 -13 -4 -7 -8 -15 -9 -18 -12 -38 -18 -49 -25 -44 -5 3 -4 15
2 27 l10 22 -18 -21 c-10 -12 -26 -20 -36 -19 -9 2 -15 -1 -11 -6 3 -5 10 -6
16 -3 8 5 9 1 5 -12 -7 -18 -6 -18 7 -1 13 17 14 17 20 0 6 -15 8 -15 16 -3 9
13 10 13 11 0 1 -8 1 -19 0 -23 -1 -5 4 -5 10 -1 8 5 9 3 4 -6 -5 -9 -4 -11 4
-6 8 5 7 13 -4 29 -21 30 -21 54 0 37 9 -7 13 -15 11 -18 -3 -2 -1 -13 5 -24
6 -11 8 -27 5 -35 -6 -14 -9 -14 -29 4 -12 10 -29 19 -37 18 -8 -1 -22 5 -32
13 -11 9 -18 10 -23 3 -9 -15 -22 -14 -29 4 -9 25 4 45 27 41 25 -4 70 22 61
35 -3 5 3 6 13 2 15 -6 16 -5 5 9 -13 16 -8 17 26 9z m-286 -15 c10 1 20 -2
24 -7 3 -5 9 -7 13 -5 4 3 8 -1 8 -9 0 -13 -4 -12 -19 2 -14 13 -18 13 -18 2
0 -11 -2 -12 -9 -1 -4 8 -12 13 -17 12 -5 -1 -10 4 -12 12 -2 9 -1 9 5 2 4 -6
16 -10 25 -8z m1375 -21 c0 -8 -4 -12 -9 -9 -5 3 -6 10 -3 15 9 13 12 11 12
-6z m-1812 -16 c-8 -12 -35 -12 -35 1 0 5 7 6 17 3 12 -5 14 -3 8 7 -5 9 -4
11 4 6 6 -4 9 -12 6 -17z m1915 5 c0 -8 -19 -13 -24 -6 -3 5 1 9 9 9 8 0 15
-2 15 -3z m177 -181 c0 -9 -4 -10 -14 -2 -7 6 -13 12 -13 14 0 1 6 2 13 2 8 0
14 -6 14 -14z m49 -2 c1 -6 0 -7 -3 -1 -2 5 -9 8 -14 5 -5 -4 -2 -17 7 -31 14
-20 19 -22 33 -12 13 10 14 10 4 -1 -13 -15 -6 -44 8 -35 5 3 9 0 9 -6 0 -6 5
-8 11 -4 8 4 8 1 2 -12 -5 -11 -8 -29 -7 -42 1 -21 0 -22 -17 -6 -10 9 -22 13
-27 10 -5 -3 -12 5 -14 18 -6 28 15 29 35 2 12 -16 13 -16 13 3 0 11 -4 17 -8
15 -4 -3 -8 -1 -8 3 0 5 -7 18 -16 29 -15 19 -16 19 -9 -1 3 -11 3 -16 -1 -12
-4 4 -12 2 -19 -3 -8 -7 -12 -5 -12 5 0 8 4 12 7 10 4 -3 8 6 8 20 0 14 -4 23
-7 20 -4 -2 -7 7 -7 19 0 24 28 30 32 7z m54 5 c0 -2 -8 -10 -17 -17 -16 -13
-17 -12 -4 4 13 16 21 21 21 13z m297 -430 c0 -8 -6 -12 -15 -9 -11 5 -11 7 0
14 7 5 13 9 14 9 0 0 1 -6 1 -14z m59 -18 c3 -4 -1 -5 -10 -4 -8 1 -18 5 -22
8 -3 4 1 5 10 4 8 -1 18 -5 22 -8z m-85 -32 c-7 -9 -8 -17 -2 -20 5 -3 12 0
15 6 3 7 3 2 0 -12 -5 -24 -4 -24 10 -6 19 24 21 14 4 -14 -10 -16 -10 -22 1
-32 12 -11 13 -10 8 4 -7 21 10 35 25 20 7 -7 7 -20 0 -41 -8 -23 -8 -31 1
-32 9 0 9 -2 1 -5 -7 -3 -10 -15 -8 -27 5 -22 5 -22 -5 1 -6 12 -16 22 -23 22
-7 0 -5 5 5 11 18 11 18 12 -1 32 -11 12 -23 33 -27 46 -6 19 -9 21 -17 10 -8
-11 -9 -10 -4 4 3 10 0 17 -7 18 -8 0 -7 2 2 6 11 5 11 7 0 14 -10 6 -7 9 10
9 19 0 21 -3 12 -14z m94 -66 c3 -5 1 -10 -4 -10 -6 0 -11 5 -11 10 0 6 2 10
4 10 3 0 8 -4 11 -10z m35 -10 c0 -5 -5 -10 -11 -10 -5 0 -7 5 -4 10 3 6 8 10
11 10 2 0 4 -4 4 -10z m-40 -20 c0 -5 -5 -10 -11 -10 -5 0 -7 5 -4 10 3 6 8
10 11 10 2 0 4 -4 4 -10z m30 -14 c0 -2 -7 -7 -16 -10 -8 -3 -12 -2 -9 4 6 10
25 14 25 6z m-53 -178 c1 -12 -3 -28 -9 -36 -6 -7 -7 -12 -2 -11 23 4 26 -2 8
-16 -27 -20 -36 -18 -32 8 2 12 -2 21 -9 20 -6 -1 -13 4 -16 11 -6 15 9 16 31
3 6 -5 13 -3 13 2 1 6 3 16 4 21 1 6 3 12 4 15 3 12 7 3 8 -17z m-38 -112 c-9
-8 -10 -8 -5 2 4 6 3 12 -1 12 -5 0 -10 12 -11 28 l-2 27 15 -29 c12 -22 13
-32 4 -40z m51 40 c0 -3 -4 -8 -10 -11 -5 -3 -10 -1 -10 4 0 6 5 11 10 11 6 0
10 -2 10 -4z m89 -42 c-6 -8 -15 -12 -19 -9 -5 3 -10 -1 -13 -7 -2 -7 -4 -1
-3 15 1 22 3 25 12 12 6 -8 14 -12 17 -8 4 3 1 13 -6 22 -11 14 -10 14 6 2 13
-10 15 -17 6 -27z m199 -309 c-3 -3 -9 2 -12 12 -6 14 -5 15 5 6 7 -7 10 -15
7 -18z m23 -42 c7 -10 9 -15 5 -11 -5 4 -16 2 -25 -5 -14 -10 -14 -10 -4 4 7
9 10 19 6 22 -3 4 -4 7 -1 7 3 0 12 -8 19 -17z"/>
<path d="M3845 4421 c-3 -5 -2 -12 3 -15 5 -3 9 1 9 9 0 17 -3 19 -12 6z"/>
<path d="M3906 4402 c-3 -5 1 -9 9 -9 8 0 12 4 9 9 -3 4 -7 8 -9 8 -2 0 -6 -4
-9 -8z"/>
<path d="M5755 3730 c3 -5 8 -10 11 -10 2 0 4 5 4 10 0 6 -5 10 -11 10 -5 0
-7 -4 -4 -10z"/>
<path d="M3168 4658 c-29 -10 -35 -22 -18 -33 6 -3 10 -15 10 -26 0 -10 5 -19
11 -19 5 0 8 4 5 8 -7 11 30 42 40 34 4 -4 4 1 1 11 -4 10 -7 23 -7 28 0 11
-7 10 -42 -3z"/>
<path d="M3225 4661 c-10 -17 12 -21 25 -6 10 12 10 15 -3 15 -9 0 -18 -4 -22
-9z"/>
<path d="M3093 4558 c14 -22 43 -24 51 -2 9 23 9 23 -28 22 -31 -1 -33 -3 -23
-20z"/>
<path d="M4893 4493 c-7 -2 -13 -11 -13 -18 0 -7 -7 -16 -16 -19 -8 -3 -12
-11 -9 -17 5 -7 13 -5 24 5 10 9 20 14 22 12 2 -2 4 7 4 20 0 13 0 24 0 23 0
0 -6 -3 -12 -6z"/>
<path d="M3385 4461 c3 -3 17 -6 31 -7 13 0 22 2 19 5 -3 3 -17 6 -31 7 -13 0
-22 -2 -19 -5z"/>
<path d="M4537 4464 c-10 -11 -8 -44 2 -44 6 0 13 4 16 10 8 12 -9 43 -18 34z"/>
<path d="M3763 4436 c-4 -5 -1 -6 7 -1 10 6 12 4 7 -8 -3 -9 -1 -19 5 -23 6
-4 8 -3 5 2 -3 6 -1 16 4 24 8 11 9 7 7 -16 -3 -20 0 -30 6 -28 6 2 11 17 11
32 0 23 -4 28 -23 28 -13 0 -26 -4 -29 -10z"/>
<path d="M4970 4441 c0 -5 5 -13 10 -16 6 -3 10 -2 10 4 0 5 -4 13 -10 16 -5
3 -10 2 -10 -4z"/>
<path d="M4267 4425 c-6 -15 10 -32 20 -21 4 3 1 6 -5 6 -6 0 -9 7 -6 15 4 8
4 15 1 15 -3 0 -7 -7 -10 -15z"/>
<path d="M3215 4399 c-4 -6 -5 -12 -2 -15 2 -3 7 2 10 11 7 17 1 20 -8 4z"/>
<path d="M3175 4361 c-3 -5 -1 -12 4 -15 5 -3 11 1 15 9 6 16 -9 21 -19 6z"/>
<path d="M4053 4349 c-2 -23 3 -25 10 -4 4 8 3 16 -1 19 -4 3 -9 -4 -9 -15z"/>
<path d="M4030 4334 c0 -8 -4 -13 -9 -9 -6 3 -8 -5 -5 -19 3 -21 1 -23 -26
-21 -16 1 -27 -1 -25 -6 3 -4 14 -6 25 -4 11 2 20 -1 20 -7 0 -20 13 1 15 25
2 12 7 21 13 20 5 -1 8 7 5 17 -6 24 -13 26 -13 4z"/>
<path d="M4143 4312 c-6 -27 -49 -72 -68 -72 -5 0 -3 -5 5 -10 13 -9 13 -10 0
-11 -8 -1 -19 0 -25 1 -5 1 -7 -2 -2 -6 4 -4 0 -15 -9 -25 -10 -11 -12 -19 -4
-24 6 -3 9 -1 8 6 -2 6 3 14 11 17 8 2 11 0 7 -6 -4 -6 2 -8 13 -5 11 3 17 11
15 18 -3 6 6 19 19 28 23 15 25 15 20 -3 -3 -12 -11 -17 -21 -13 -14 4 -15 3
-2 -5 17 -13 30 -6 30 14 0 10 5 12 13 8 9 -6 9 -5 0 7 -10 12 -11 25 -3 59 0
3 10 -6 21 -19 25 -31 35 -20 23 26 -11 45 -41 54 -51 15z"/>
<path d="M3729 4313 c-13 -16 -12 -17 4 -4 16 13 21 21 13 21 -2 0 -10 -8 -17
-17z"/>
<path d="M4625 4310 c3 -5 8 -10 11 -10 2 0 4 5 4 10 0 6 -5 10 -11 10 -5 0
-7 -4 -4 -10z"/>
<path d="M3976 4245 c-3 -8 -1 -15 4 -15 6 0 10 7 10 15 0 8 -2 15 -4 15 -2 0
-6 -7 -10 -15z"/>
<path d="M4030 4246 c0 -2 7 -6 15 -10 8 -3 15 -1 15 4 0 6 -7 10 -15 10 -8 0
-15 -2 -15 -4z"/>
<path d="M4004 4173 c2 -9 8 -18 15 -19 6 -1 7 0 1 3 -5 2 -8 9 -5 13 3 5 1
11 -4 14 -5 4 -8 -2 -7 -11z"/>
<path d="M4416 4165 c-3 -9 0 -15 9 -15 16 0 20 16 6 24 -5 3 -11 -1 -15 -9z"/>
<path d="M3970 4166 c0 -2 8 -10 18 -17 15 -13 16 -12 3 4 -13 16 -21 21 -21
13z"/>
<path d="M4077 4135 c-4 -8 -3 -16 1 -19 4 -3 9 4 9 15 2 23 -3 25 -10 4z"/>
<path d="M4020 4110 c5 -18 12 -35 16 -39 9 -9 -7 53 -17 63 -5 5 -4 -5 1 -24z"/>
<path d="M4550 4130 c0 -5 7 -10 15 -10 8 0 15 5 15 10 0 6 -7 10 -15 10 -8 0
-15 -4 -15 -10z"/>
<path d="M3986 4123 c-3 -3 -6 -11 -6 -17 0 -6 5 -4 11 4 9 12 10 11 6 -8 -3
-12 -1 -20 4 -16 11 7 12 31 0 38 -4 3 -11 3 -15 -1z"/>
<path d="M2981 4085 c0 -5 9 -21 20 -35 15 -18 18 -19 11 -5 -5 11 -7 27 -5
35 4 12 3 12 -5 1 -8 -11 -10 -11 -15 0 -3 8 -6 10 -6 4z"/>
<path d="M4165 4030 c-8 -13 28 -30 43 -21 9 5 5 11 -12 19 -15 7 -28 7 -31 2z"/>
<path d="M2886 3988 c-3 -17 -6 -65 -6 -108 0 -60 3 -77 15 -77 20 0 27 24 8
31 -11 5 -13 10 -4 20 6 7 8 16 4 19 -3 4 -1 12 4 19 17 22 17 115 0 121 -10
4 -17 -4 -21 -25z"/>
<path d="M4225 4000 c-3 -6 1 -7 9 -4 18 7 21 14 7 14 -6 0 -13 -4 -16 -10z"/>
<path d="M4270 3962 c12 -25 31 -21 29 6 -1 15 -2 14 -6 -1 -5 -18 -5 -18 -19
0 -14 17 -14 16 -4 -5z"/>
<path d="M3847 3957 c-3 -8 1 -14 8 -14 7 0 11 6 8 14 -3 7 -6 13 -8 13 -2 0
-5 -6 -8 -13z"/>
<path d="M3760 3940 c0 -14 6 -19 20 -17 11 2 23 7 27 12 5 4 2 5 -5 1 -7 -4
-15 -1 -18 8 -9 23 -24 20 -24 -4z"/>
<path d="M3816 3925 c-3 -9 0 -15 9 -15 16 0 20 16 6 24 -5 3 -11 -1 -15 -9z"/>
<path d="M4299 3933 c-1 -4 -1 -12 0 -17 1 -5 -4 -4 -12 2 -19 16 -69 12 -63
-5 4 -9 -1 -9 -18 2 -12 8 -25 13 -28 10 -8 -8 3 -55 13 -55 5 0 6 8 3 18 -5
14 -4 14 4 2 6 -8 8 -18 6 -22 -5 -8 5 -11 38 -11 10 0 14 -5 11 -14 -4 -10
-8 -11 -13 -3 -5 8 -11 6 -20 -5 -14 -16 -35 -21 -25 -5 3 6 1 10 -4 10 -13 0
-14 -17 -2 -24 8 -5 5 -65 -4 -74 -1 -1 -12 6 -25 16 -23 18 -23 18 -49 -8
-39 -40 -97 -61 -87 -32 5 15 5 15 -6 1 -18 -22 -44 -29 -57 -16 -9 9 -14 8
-21 -3 -13 -20 -13 -33 0 -25 6 3 10 0 10 -7 0 -11 2 -10 9 0 7 11 9 11 14 -2
7 -18 -6 -61 -22 -70 -5 -4 -8 -16 -6 -27 4 -17 2 -19 -11 -9 -11 10 -12 16
-2 28 7 8 13 18 13 21 0 3 3 5 8 3 4 -1 7 2 7 7 0 5 2 16 5 23 4 10 -2 13 -22
12 -43 -2 -45 -3 -37 -16 5 -10 4 -10 -6 -1 -7 7 -14 25 -16 40 -1 15 -2 29
-3 31 -3 9 -31 -28 -31 -40 0 -10 3 -9 10 2 8 13 10 12 10 -4 0 -11 8 -29 18
-40 10 -12 4 -9 -16 7 -35 29 -52 34 -52 16 0 -5 -6 -7 -12 -3 -9 5 -9 3 1 -9
14 -18 36 -13 24 6 -4 7 0 6 10 -2 18 -14 24 -26 8 -17 -4 3 -17 -4 -27 -17
-13 -15 -14 -18 -3 -9 14 10 18 10 23 -4 9 -22 8 -23 -14 -17 -18 5 -19 1 -16
-41 4 -55 10 -64 32 -45 14 12 14 14 -2 26 -22 16 -27 43 -8 43 8 0 14 -4 14
-10 0 -5 8 -7 18 -3 14 5 15 3 5 -8 -7 -7 -13 -17 -13 -23 0 -5 6 -1 14 10 10
13 11 23 4 31 -14 17 1 16 32 -3 14 -8 18 -13 9 -11 -9 3 -22 -4 -30 -16 -8
-11 -21 -28 -31 -38 -9 -9 -15 -19 -13 -21 2 -2 -10 -5 -27 -6 -28 -2 -30 -1
-24 24 5 17 3 23 -4 19 -15 -9 -12 11 4 28 9 9 11 19 5 28 -5 8 -9 10 -9 5 0
-6 -6 -2 -13 9 -10 13 -16 15 -21 6 -4 -6 -12 -8 -18 -5 -7 4 -8 2 -4 -4 4 -7
2 -12 -4 -12 -6 0 -9 -4 -6 -9 4 -5 -2 -7 -13 -4 -10 3 -22 0 -25 -6 -4 -5
-14 -7 -22 -4 -9 3 -20 0 -25 -8 -4 -8 -23 -14 -41 -14 -19 0 -34 -5 -34 -12
-1 -7 -2 -22 -3 -34 0 -11 -5 -18 -10 -15 -5 3 -12 -1 -15 -10 -9 -23 -9 -23
28 -17 39 6 45 -1 35 -42 -5 -23 -7 -25 -8 -8 0 12 -6 25 -12 29 -15 9 -31
-18 -19 -30 6 -6 10 -15 10 -21 0 -5 -5 -3 -10 5 -9 13 -11 13 -19 0 -6 -9 -6
-19 1 -27 5 -7 8 -19 5 -26 -9 -23 9 -43 26 -29 11 9 14 8 14 -3 0 -8 -4 -15
-9 -15 -5 0 -8 -7 -6 -16 2 -10 -3 -19 -11 -22 -8 -2 -11 0 -8 6 4 5 -1 16
-11 23 -15 13 -16 12 -3 -3 7 -10 10 -18 5 -19 -5 0 -17 -2 -26 -4 -16 -3 -22
6 -19 27 0 4 -6 5 -14 2 -8 -4 -15 -10 -15 -16 0 -5 6 -6 13 -2 8 5 7 2 -2 -9
-12 -16 -11 -19 16 -29 20 -7 31 -19 32 -32 3 -70 14 -101 33 -90 7 4 8 2 4
-5 -4 -6 -13 -8 -19 -4 -20 12 -37 12 -38 0 0 -7 -4 -3 -9 8 -7 17 -9 17 -9 3
-1 -17 -2 -17 -21 -1 -27 23 -25 33 5 33 16 0 25 6 25 16 0 9 5 12 13 8 6 -4
8 -3 4 1 -14 16 -67 15 -67 -1 0 -8 -6 -17 -14 -20 -8 -3 -16 -14 -19 -24 -4
-14 -12 -17 -44 -13 -53 6 -71 -15 -35 -41 14 -11 22 -14 18 -8 -4 7 -5 12 -2
12 13 0 35 -57 25 -67 -13 -13 0 -45 15 -36 7 4 6 1 -2 -9 -12 -15 -7 -52 7
-44 4 3 7 -4 7 -14 0 -10 -6 -16 -13 -13 -12 5 -18 -13 -14 -44 1 -7 -7 -10
-18 -8 -10 2 -27 -2 -36 -9 -16 -11 -16 -13 -1 -13 9 0 16 5 16 11 0 6 3 7 10
0 5 -5 6 -20 3 -34 -6 -22 -7 -23 -14 -4 -6 16 -7 14 -6 -8 1 -15 5 -24 9 -22
15 9 38 -22 26 -34 -13 -13 8 -46 22 -37 5 3 11 1 14 -4 9 -14 -20 -21 -35 -8
-7 7 -5 2 5 -10 11 -13 26 -23 35 -23 14 0 14 -2 1 -10 -12 -8 -10 -10 9 -10
20 0 22 -2 11 -15 -11 -13 -10 -14 6 -9 10 4 16 4 12 -1 -9 -10 14 -33 38 -37
10 -2 32 -16 48 -33 16 -16 23 -21 15 -11 -12 16 -8 16 19 -4 17 -13 32 -24
32 -25 0 -3 -25 -5 -150 -13 -104 -6 -134 -12 -180 -34 -30 -14 -91 -40 -135
-57 -44 -17 -89 -38 -99 -46 -26 -20 -15 -19 29 2 36 17 58 12 37 -9 -7 -7
-12 -19 -11 -27 0 -11 2 -12 6 -3 2 6 11 12 18 12 9 0 11 8 7 22 -3 14 -2 19
7 14 6 -4 9 -11 6 -15 -5 -9 40 -62 47 -55 3 2 5 -3 5 -11 0 -11 -4 -12 -14
-4 -17 14 -17 -3 0 -20 10 -10 9 -11 -5 -6 -10 4 -18 14 -18 22 0 9 -6 13 -14
10 -10 -4 -16 2 -19 16 -4 17 -2 -25 2 -64 1 -4 26 -10 56 -14 30 -3 55 -11
55 -16 0 -6 -4 -7 -10 -4 -6 4 -10 -6 -10 -22 0 -21 -3 -24 -9 -13 -6 8 -7 18
-5 22 3 4 -2 8 -11 8 -8 0 -18 -7 -21 -15 -4 -8 -11 -12 -18 -8 -8 5 -8 3 -1
-8 15 -20 18 -66 6 -74 -6 -3 -11 -14 -10 -23 0 -16 1 -16 7 -1 6 14 9 14 19
4 9 -10 9 -17 -3 -31 -12 -16 -13 -16 -8 -2 5 14 1 16 -18 13 -12 -3 -24 -9
-26 -15 -2 -6 -9 -7 -15 -3 -7 4 -8 0 -3 -13 6 -15 5 -16 -5 -7 -9 9 -9 15 0
27 9 11 9 15 -1 18 -10 4 -10 9 2 23 8 10 14 20 13 22 -2 1 -3 6 -3 11 0 4 4
0 10 -8 6 -9 5 -20 -3 -29 -9 -11 -9 -13 0 -8 6 4 13 4 16 0 2 -5 2 -3 1 4 -2
6 3 17 11 23 13 11 14 16 1 61 -5 18 -13 26 -24 24 -9 -2 -19 -4 -22 -4 -2 -1
1 -6 8 -13 19 -19 14 -32 -5 -17 -15 11 -16 11 -5 -1 19 -22 14 -35 -6 -17
-15 14 -19 14 -19 3 0 -8 5 -14 11 -13 13 3 15 -24 2 -42 -6 -7 -11 -30 -13
-50 -3 -52 -5 -61 -15 -61 -4 0 -9 6 -9 13 -1 6 -2 19 -3 27 -1 8 2 29 6 45 6
26 6 28 -6 13 -7 -10 -16 -16 -19 -13 -4 3 -5 2 -2 -2 3 -3 0 -12 -5 -19 -14
-16 -22 -56 -9 -49 5 4 7 10 4 15 -3 5 -1 11 4 14 5 4 8 -5 7 -19 -2 -13 1
-22 5 -19 5 3 9 -2 9 -10 0 -9 -5 -15 -11 -14 -14 3 -21 -30 -9 -37 5 -3 7 4
5 15 -2 11 0 18 5 15 7 -4 7 -20 1 -43 -3 -11 -41 22 -42 36 0 10 -5 6 -11
-11 -6 -16 -14 -24 -21 -21 -9 5 -9 4 0 -6 6 -7 9 -20 6 -29 -4 -9 -3 -13 1
-10 4 4 9 17 11 29 7 36 13 34 11 -3 -1 -38 -24 -45 -37 -11 -6 14 -8 15 -8 3
-1 -8 -12 -25 -24 -38 -21 -19 -25 -20 -37 -6 -7 9 -8 15 -2 15 6 0 13 -6 15
-12 3 -8 6 -5 6 5 1 11 6 15 13 11 7 -5 8 -3 3 6 -5 8 -4 11 3 6 6 -4 10 1 9
12 0 10 -6 19 -13 19 -6 0 -11 -7 -10 -16 0 -8 -7 -17 -18 -19 -13 -3 -16 0
-11 9 5 7 4 10 -3 5 -5 -3 -13 0 -15 6 -3 7 -4 -2 -2 -20 1 -21 -1 -30 -7 -24
-14 14 -17 45 -4 62 6 8 1 7 -11 -4 -13 -10 -20 -23 -17 -28 3 -5 1 -15 -6
-23 -8 -9 -8 -15 0 -20 6 -3 8 -11 4 -16 -8 -14 -24 0 -24 22 0 10 -4 20 -10
20 -20 3 -25 4 -40 14 -12 7 -13 6 -4 -6 6 -8 14 -23 18 -34 6 -16 5 -17 -5
-8 -9 9 -20 9 -48 -4 -20 -8 -45 -16 -56 -17 -11 -1 -19 -8 -17 -16 2 -11 -1
-10 -11 3 -18 22 -47 22 -47 0 -1 -16 -2 -16 -15 1 -15 19 -15 19 -15 -2 0
-12 -4 -21 -8 -20 -5 2 -21 -12 -36 -29 -15 -18 -23 -33 -17 -33 6 0 11 5 11
11 0 6 7 8 16 5 9 -4 31 -2 48 3 34 10 113 28 163 36 18 3 43 9 56 14 13 5 30
6 37 1 7 -4 19 -6 26 -3 7 2 18 -5 24 -17 6 -11 16 -17 22 -14 6 4 8 3 4 -4
-3 -6 -1 -23 5 -39 17 -40 19 -52 8 -59 -8 -4 -14 17 -10 39 0 4 -5 7 -13 7
-9 0 -12 8 -8 27 4 21 2 25 -11 20 -10 -4 -22 1 -30 14 -12 16 -16 17 -26 6
-6 -8 -8 -16 -5 -20 3 -3 -3 -18 -13 -33 -10 -16 -13 -25 -6 -21 7 4 16 0 22
-10 6 -10 11 -13 11 -7 0 5 -6 16 -12 23 -11 11 -10 13 5 8 10 -4 16 -3 13 2
-3 5 2 15 11 22 14 12 15 11 9 -9 -4 -12 -3 -22 2 -22 14 0 9 -27 -8 -43 -10
-10 -11 -9 -5 2 5 9 3 12 -6 9 -8 -3 -27 1 -43 9 -15 8 -25 10 -22 5 9 -15
-25 -24 -40 -11 -8 6 -14 8 -14 4 0 -4 8 -14 18 -21 15 -11 11 -12 -28 -9 -43
4 -42 2 55 -45 82 -40 126 -54 235 -76 l135 -27 43 20 c51 23 98 20 86 -6 -5
-9 -8 -31 -8 -48 0 -18 -3 -33 -7 -33 -5 0 -14 -19 -21 -42 -6 -24 -19 -54
-27 -66 -11 -19 -12 -25 -2 -31 10 -6 9 -10 -3 -14 -9 -4 -16 -11 -16 -16 0
-6 8 -8 18 -4 15 6 15 4 -2 -15 -11 -12 -16 -28 -12 -38 5 -14 15 -16 57 -11
52 6 180 41 211 58 10 5 22 9 28 9 6 0 33 11 62 25 28 14 57 25 63 25 7 0 19
8 28 18 15 16 15 25 1 102 -30 166 -16 467 31 670 71 302 123 459 184 548 42
63 121 194 121 203 0 9 44 78 110 171 22 32 40 61 40 65 0 11 49 63 58 63 4 0
14 11 22 24 28 45 175 199 225 236 142 105 259 171 417 234 31 12 162 36 199
36 5 0 9 4 9 8 0 9 -80 7 -140 -3 -34 -6 -39 -4 -34 9 5 12 0 16 -21 16 -27 0
-28 0 -10 -20 18 -20 17 -20 -10 -20 -15 0 -33 -7 -40 -17 -9 -13 -14 -13 -20
-3 -6 9 -4 11 6 5 11 -7 11 -5 -1 10 -13 16 -15 16 -18 2 -2 -10 -8 -17 -13
-17 -6 0 -7 6 -3 13 5 8 2 8 -9 -2 -9 -7 -17 -19 -17 -27 0 -7 -5 -16 -12 -20
-7 -5 -9 -2 -5 8 4 13 0 15 -24 11 -30 -4 -37 5 -18 24 16 16 0 36 -25 31 -18
-4 -21 0 -21 31 0 21 -5 35 -11 34 -6 -1 -9 8 -7 21 5 27 -12 44 -21 21 -3 -8
-1 -15 4 -15 5 0 7 -6 4 -14 -3 -8 -14 -14 -24 -13 -15 1 -16 5 -9 25 6 15 5
21 -1 17 -6 -3 -10 -1 -10 4 0 6 -8 11 -19 11 -10 0 -24 7 -31 15 -11 13 -10
14 6 9 18 -6 18 -6 2 7 -10 8 -25 23 -33 34 -16 20 -16 20 -6 -2 8 -15 8 -24
1 -28 -6 -4 -10 -3 -9 2 3 20 -2 34 -11 28 -5 -3 -7 0 -4 9 7 19 -26 52 -49
48 -9 -2 -15 -7 -12 -12 3 -5 -4 -7 -15 -5 -29 6 -40 14 -40 31 0 8 -5 12 -10
9 -6 -4 -7 -11 -4 -17 4 -7 2 -8 -5 -4 -6 4 -9 11 -6 16 3 4 -1 11 -7 14 -7 3
-1 3 15 1 29 -4 58 27 37 40 -5 3 -11 3 -11 -2z m-34 -113 c-4 -6 -2 -16 4
-23 7 -10 2 -13 -24 -13 -18 0 -31 4 -29 8 3 4 11 8 19 8 7 0 15 7 19 15 3 8
8 15 11 15 4 0 3 -5 0 -10z m39 -59 c-8 -8 -34 -10 -38 -2 -3 4 6 7 19 7 14 0
22 -2 19 -5z m-47 -26 c0 -8 -3 -12 -7 -10 -4 3 -15 -4 -25 -15 -9 -10 -23
-16 -31 -13 -8 3 -14 0 -14 -7 0 -8 -8 -10 -21 -7 -12 3 -30 1 -40 -6 -14 -9
-21 -9 -30 0 -9 9 -7 10 11 6 20 -5 21 -4 11 16 -9 17 -9 21 1 19 7 -2 16 -7
20 -13 5 -6 18 -6 38 2 18 7 30 7 30 2 0 -6 5 -7 10 -4 8 5 7 11 0 20 -10 11
-8 13 9 10 11 -2 23 0 26 6 9 13 12 11 12 -6z m168 -75 c-3 -6 1 -10 9 -10 10
0 16 -9 16 -21 0 -12 8 -23 20 -26 11 -3 20 -12 20 -19 0 -8 5 -14 11 -14 5 0
7 6 3 13 -4 7 -3 9 2 4 5 -5 9 -12 9 -15 1 -4 6 -18 13 -32 13 -24 12 -24 -3
-5 -9 11 -18 19 -20 18 -13 -7 -25 -1 -25 12 0 8 -11 17 -25 21 -18 4 -25 13
-25 30 0 12 -7 27 -15 31 -9 6 -12 17 -8 32 5 20 7 21 15 7 5 -9 6 -21 3 -26z
m-185 7 c0 -7 -4 -6 -10 3 -8 12 -10 12 -10 1 0 -8 -3 -12 -6 -8 -9 9 6 28 17
22 5 -4 9 -12 9 -18z m250 -7 c13 -25 13 -25 -8 -6 -12 10 -19 23 -16 28 7 11
7 11 24 -22z m73 -50 c7 -9 3 -7 -10 3 -14 13 -19 25 -15 40 6 21 7 21 10 -3
2 -14 9 -32 15 -40z m-439 44 c21 -8 21 -24 0 -24 -8 0 -13 4 -10 9 4 5 0 12
-6 14 -7 3 -10 6 -6 6 3 1 13 -2 22 -5z m240 -20 c5 -12 2 -15 -10 -10 -8 3
-18 6 -20 6 -3 0 -2 5 1 10 9 15 22 12 29 -6z m-314 -52 c0 -2 -7 -10 -15 -18
-12 -12 -15 -12 -15 -2 0 10 -2 10 -9 -1 -7 -10 -10 -10 -16 -1 -9 14 11 29
37 27 10 -1 18 -3 18 -5z m160 -16 c0 -3 -4 -8 -10 -11 -5 -3 -10 -1 -10 4 0
6 5 11 10 11 6 0 10 -2 10 -4z m-140 -20 c0 -2 -7 -7 -16 -10 -8 -3 -12 -2 -9
4 6 10 25 14 25 6z m571 -13 c13 -16 12 -17 -3 -4 -17 13 -22 21 -14 21 2 0
10 -8 17 -17z m-471 -3 c0 -5 -6 -10 -14 -10 -8 0 -18 5 -21 10 -3 6 3 10 14
10 12 0 21 -4 21 -10z m-158 -21 c2 -2 1 -3 -1 -2 -2 2 -9 -2 -16 -7 -8 -7
-12 -5 -12 4 0 12 22 16 29 5z m-392 -14 c0 -2 -6 -8 -13 -14 -10 -8 -14 -7
-14 2 0 8 6 14 14 14 7 0 13 -1 13 -2z m157 -48 c2 -17 1 -19 -7 -7 -11 17
-14 47 -3 36 4 -3 8 -17 10 -29z m443 23 c0 -5 -5 -10 -11 -10 -5 0 -7 5 -4
10 3 6 8 10 11 10 2 0 4 -4 4 -10z m-480 -14 c0 -3 -4 -8 -10 -11 -5 -3 -10
-1 -10 4 0 6 5 11 10 11 6 0 10 -2 10 -4z m-100 -32 c0 -8 -5 -12 -10 -9 -6 4
-8 11 -5 16 9 14 15 11 15 -7z m490 6 c0 -5 -2 -10 -4 -10 -3 0 -8 5 -11 10
-3 6 -1 10 4 10 6 0 11 -4 11 -10z m-493 -70 c-1 -22 -17 -28 -17 -7 0 12 9
27 16 27 2 0 2 -9 1 -20z m-42 -42 c5 4 5 1 1 -6 -6 -10 -11 -10 -22 -1 -8 6
-14 14 -14 16 0 3 6 0 13 -6 8 -6 18 -7 22 -3z m32 -10 c2 -17 0 -19 -7 -8 -5
8 -6 18 -4 22 8 12 10 10 11 -14z m33 -57 c0 -6 -5 -13 -12 -17 -7 -4 -8 -3
-4 4 10 16 -6 15 -24 0 -12 -11 -12 -10 -1 5 14 18 41 23 41 8z m-65 -21 c-5
-15 -3 -18 9 -14 12 5 15 2 10 -10 -3 -9 -1 -16 5 -16 6 0 11 -5 11 -11 0 -5
-6 -7 -12 -3 -10 6 -10 5 0 -8 17 -21 -3 -37 -41 -32 -18 2 -25 -1 -21 -9 3
-7 -1 -4 -9 6 -9 10 -14 31 -12 45 2 15 4 30 4 34 1 4 7 5 15 2 9 -3 20 3 28
15 16 26 21 27 13 1z m-135 -175 c-9 -10 -9 -15 -1 -15 6 0 11 -8 10 -17 0
-13 -2 -14 -6 -4 -4 10 -7 10 -13 2 -5 -9 -10 -8 -20 4 -9 11 -9 15 -1 15 7 0
9 5 5 12 -4 6 -3 8 4 4 6 -3 13 -2 17 4 3 5 9 10 12 10 3 0 0 -7 -7 -15z m70
-34 c3 -1 -3 -6 -13 -12 -9 -5 -22 -7 -27 -4 -6 3 -10 -1 -10 -9 0 -21 17 -29
39 -17 16 9 19 8 17 -7 -2 -10 -11 -17 -25 -16 -18 1 -19 -1 -9 -14 9 -11 9
-14 1 -9 -6 4 -14 3 -18 -3 -3 -6 1 -13 9 -16 20 -8 21 -24 1 -24 -20 0 -30
27 -17 43 10 12 2 40 -12 38 -3 -1 -14 -1 -23 -1 -14 0 -15 2 -5 9 8 4 14 12
14 17 0 5 4 8 9 6 5 -1 12 4 15 12 4 11 30 14 54 7z m-127 -208 c-5 -12 -2
-15 9 -10 9 3 24 -1 35 -8 10 -8 16 -15 13 -15 -32 -7 -40 -6 -40 3 0 7 -5 5
-10 -3 -6 -9 -10 -11 -10 -3 0 7 -6 10 -14 7 -8 -3 -17 0 -21 6 -4 6 -1 9 7 8
7 -2 14 4 14 12 3 29 4 31 14 25 5 -3 6 -13 3 -22z m-113 -477 c0 -3 -4 -8
-10 -11 -5 -3 -10 -1 -10 4 0 6 5 11 10 11 6 0 10 -2 10 -4z m-159 -129 c-10
-9 -11 -8 -5 6 3 10 9 15 12 12 3 -3 0 -11 -7 -18z m161 -49 c-6 -6 -21 -7
-33 -3 -23 8 -23 8 -4 15 26 9 50 1 37 -12z m65 -18 c-2 -11 -8 -25 -15 -32
-17 -17 -27 17 -10 36 18 21 28 20 25 -4z m40 -12 c-3 -8 -6 -5 -6 6 -1 11 2
17 5 13 3 -3 4 -12 1 -19z m-266 -30 c8 -15 8 -19 0 -14 -6 4 -11 2 -11 -3 0
-6 5 -11 11 -11 5 0 7 -5 3 -11 -5 -8 -10 -6 -16 5 -5 9 -6 21 -3 27 4 5 1 17
-7 26 -9 12 -9 15 -1 9 7 -4 18 -16 24 -28z m52 -47 c-2 -10 3 -23 11 -30 10
-8 16 -9 16 -3 0 6 -4 13 -9 17 -6 3 -9 14 -8 24 1 15 5 17 18 10 12 -6 19 -5
21 3 3 7 7 5 11 -6 4 -9 3 -15 -2 -12 -5 3 -11 -4 -14 -16 -7 -23 10 -41 28
-30 5 3 4 -2 -4 -11 -8 -10 -16 -15 -19 -12 -3 3 -12 -1 -20 -8 -11 -8 -14 -8
-9 0 4 6 3 14 -3 18 -10 6 -15 -9 -10 -30 1 -5 -2 -7 -6 -3 -4 4 -14 2 -23 -4
-15 -12 -15 -11 0 7 24 30 29 52 15 64 -8 6 -11 22 -8 37 3 17 7 21 12 14 4
-7 6 -20 3 -29z m97 -16 c-5 -6 -6 -16 -2 -20 4 -5 2 -5 -5 -2 -6 4 -10 15 -8
25 1 9 -3 24 -9 32 -6 8 -1 6 12 -4 15 -13 19 -23 12 -31z m-225 -134 c3 -5 2
-12 -3 -15 -5 -3 -9 1 -9 9 0 17 3 19 12 6z m25 -149 c0 -5 -6 -16 -13 -27
-13 -17 -14 -16 -11 6 3 31 2 29 14 29 6 0 10 -4 10 -8z m-543 -58 c-3 -3 -12
-4 -19 -1 -8 3 -5 6 6 6 11 1 17 -2 13 -5z m283 -19 c0 -1 -6 -7 -13 -13 -10
-8 -13 -6 -13 7 0 11 6 17 13 14 7 -3 13 -6 13 -8z m21 -28 c-10 -9 -11 -8 -5
6 3 10 9 15 12 12 3 -3 0 -11 -7 -18z m-92 -78 c-19 -12 -24 -2 -8 17 9 11 14
13 17 4 3 -7 -2 -16 -9 -21z"/>
<path d="M3558 3177 c9 -11 16 -22 14 -26 -4 -10 38 -9 44 1 3 4 0 7 -8 6 -7
-2 -12 2 -11 9 2 8 -4 10 -15 6 -14 -6 -15 -4 -5 8 10 13 8 15 -12 15 -23 0
-24 -1 -7 -19z"/>
<path d="M3205 2051 c-3 -5 -2 -12 3 -15 5 -3 9 1 9 9 0 17 -3 19 -12 6z"/>
<path d="M5547 3923 c5 -12 3 -14 -7 -8 -9 5 -11 4 -6 -4 4 -6 12 -9 17 -6 12
8 12 35 -1 35 -5 0 -6 -7 -3 -17z"/>
<path d="M4313 3893 c-18 -7 -16 -30 3 -37 8 -3 12 -2 9 4 -3 6 -3 10 2 11 4
0 18 2 31 3 13 2 26 -4 31 -12 7 -12 9 -12 14 2 4 10 3 15 -3 11 -6 -3 -10 -1
-10 5 0 7 -13 9 -36 6 -22 -4 -33 -2 -29 4 7 11 6 11 -12 3z"/>
<path d="M2934 3872 c0 -10 6 -19 13 -19 8 0 9 6 2 19 -5 10 -11 18 -12 18 -2
0 -3 -8 -3 -18z"/>
<path d="M4150 3865 c-10 -12 -10 -18 -1 -29 7 -9 8 -17 3 -20 -6 -3 -12 0
-15 7 -2 7 -18 13 -33 14 l-29 2 29 -24 c17 -13 33 -22 37 -20 4 3 9 -5 12
-16 7 -26 27 -15 26 14 -1 20 -2 20 -8 -3 -7 -25 -7 -25 -13 -3 -3 13 -2 26 3
29 5 3 7 9 4 14 -3 5 3 13 12 19 17 10 17 10 0 11 -10 0 -15 5 -12 10 9 15 -1
12 -15 -5z"/>
<path d="M3696 3861 c-4 -5 1 -8 9 -7 21 3 31 16 12 16 -9 0 -18 -4 -21 -9z"/>
<path d="M3915 3862 c-10 -10 -5 -20 13 -24 12 -3 18 1 19 12 1 15 -20 23 -32
12z"/>
<path d="M4040 3842 c0 -5 7 -9 15 -9 8 0 12 4 9 9 -3 4 -9 8 -15 8 -5 0 -9
-4 -9 -8z"/>
<path d="M3766 3821 c-3 -5 2 -8 12 -7 9 0 16 -4 15 -11 -2 -7 4 -10 12 -7 11
5 13 2 9 -10 -3 -8 -11 -14 -17 -13 -6 1 -13 -8 -15 -21 -5 -33 20 -23 33 13
10 26 9 32 -9 47 -24 20 -32 22 -40 9z"/>
<path d="M3937 3806 c-3 -8 1 -20 9 -26 10 -9 14 -9 14 -1 0 7 9 9 25 5 20 -5
24 -3 19 10 -3 9 -12 16 -19 16 -7 0 -20 3 -28 6 -8 3 -17 -2 -20 -10z"/>
<path d="M4035 3790 c-11 -5 -15 -9 -10 -10 6 -1 18 -3 28 -5 11 -2 15 1 10 8
-4 7 1 6 11 -2 15 -12 19 -12 32 1 13 13 11 15 -18 15 -18 1 -42 -3 -53 -7z"/>
<path d="M3833 3743 c0 -9 4 -10 14 -2 7 6 13 12 13 14 0 1 -6 2 -13 2 -8 0
-14 -6 -14 -14z"/>
<path d="M2909 3728 c-6 -13 -8 -20 -4 -16 5 4 13 3 20 -2 8 -7 12 -5 12 5 0
8 -5 11 -10 8 -6 -4 -8 0 -4 10 9 25 0 21 -14 -5z"/>
<path d="M3905 3740 c-3 -5 -1 -10 4 -10 6 0 11 5 11 10 0 6 -2 10 -4 10 -3 0
-8 -4 -11 -10z"/>
<path d="M3895 3691 c-3 -5 -2 -12 3 -15 5 -3 9 1 9 9 0 17 -3 19 -12 6z"/>
<path d="M4612 3671 c2 -7 7 -12 11 -12 12 1 9 15 -3 20 -7 2 -11 -2 -8 -8z"/>
<path d="M4665 3650 c-19 -8 -19 -9 3 -9 12 -1 22 4 22 9 0 6 -1 10 -2 9 -2 0
-12 -4 -23 -9z"/>
<path d="M3741 3624 c0 -11 3 -14 6 -6 3 7 2 16 -1 19 -3 4 -6 -2 -5 -13z"/>
<path d="M5056 3630 c-19 -6 -19 -7 2 -12 12 -4 24 -2 27 2 8 13 -8 18 -29 10z"/>
<path d="M5719 3615 c-1 -3 -2 -8 -3 -12 -1 -5 -4 -13 -8 -19 -4 -6 -1 -11 5
-11 7 0 13 11 13 24 0 21 -4 31 -7 18z"/>
<path d="M4910 3346 c0 -19 -4 -38 -10 -41 -14 -9 -6 -335 9 -362 14 -27 12
-39 -15 -69 -11 -13 -21 -29 -22 -36 -1 -7 -4 -31 -8 -53 -9 -50 -8 -218 1
-267 5 -28 3 -41 -9 -53 -26 -27 -41 -95 -50 -230 -5 -87 -12 -105 -37 -100
-11 2 -22 -2 -26 -10 -3 -8 -9 -13 -13 -10 -4 3 -13 -2 -20 -10 -7 -8 -18 -15
-25 -15 -7 0 -28 -14 -46 -30 -19 -17 -44 -33 -57 -36 -21 -6 -22 -7 -5 -20
17 -12 17 -13 -3 -8 -15 4 -31 -5 -57 -29 -19 -20 -33 -38 -30 -41 4 -3 1 -6
-5 -6 -6 0 -9 -8 -6 -17 5 -14 4 -15 -4 -4 -5 7 -15 10 -22 6 -9 -6 -9 -9 1
-16 11 -6 0 -21 -41 -60 -71 -67 -20 -39 71 38 113 97 177 143 217 157 21 8
58 24 81 36 24 12 44 20 46 18 2 -2 -7 -55 -21 -118 -37 -169 -52 -276 -50
-356 2 -78 5 -74 -86 -121 -16 -8 -28 -19 -28 -24 0 -5 -4 -9 -9 -9 -12 0
-191 -120 -238 -159 -122 -101 -228 -163 -247 -143 -3 3 -6 24 -7 46 -1 38 -1
39 -9 13 -5 -16 -7 -37 -5 -48 2 -11 -4 -23 -16 -29 -11 -6 -17 -15 -14 -21 4
-5 -1 -9 -9 -9 -8 0 -21 -8 -28 -18 -7 -9 -28 -30 -46 -45 -48 -39 -23 -34 62
13 40 22 77 40 83 40 7 0 7 -14 1 -42 -24 -109 -34 -218 -28 -318 l2 -35 8 40
c4 22 11 87 14 145 4 58 12 119 18 135 35 101 51 116 173 161 39 14 86 33 105
42 61 30 173 114 244 184 38 38 70 67 71 66 1 -2 -4 -37 -12 -78 -28 -154 -33
-189 -54 -370 -11 -102 -22 -198 -24 -215 -6 -60 -19 -300 -17 -311 3 -16 -50
-25 -85 -15 -15 4 -36 7 -45 5 -10 -1 -18 1 -18 6 0 4 -16 6 -35 3 -20 -3 -42
0 -50 7 -8 7 -38 14 -66 17 -28 2 -62 8 -75 14 -32 12 -51 12 -39 0 10 -9 34
-17 143 -46 186 -51 498 -42 740 22 70 18 98 39 52 37 -16 0 -35 -6 -42 -12
-18 -15 -86 -21 -121 -11 -16 5 -25 4 -22 -2 4 -5 -3 -9 -14 -9 -10 0 -22 6
-24 13 -4 9 -6 9 -6 0 -1 -7 -6 -13 -12 -13 -5 0 -7 6 -3 13 6 9 5 9 -7 0 -11
-9 -19 -9 -26 -2 -8 8 -13 7 -18 -2 -6 -8 -4 -10 6 -5 8 4 5 0 -5 -8 -21 -17
-41 -22 -32 -8 2 4 -14 8 -37 8 -24 0 -46 -6 -50 -14 -7 -10 -12 -10 -23 -1
-11 9 -14 8 -14 -2 0 -11 -2 -11 -10 1 -6 10 -10 11 -10 3 0 -7 -7 -13 -16
-13 -8 0 -12 5 -9 10 3 6 2 10 -4 10 -12 0 -10 9 30 135 17 55 35 119 41 143
7 33 14 42 30 42 19 0 20 4 14 46 -3 27 -1 65 6 88 6 23 12 43 13 46 0 3 7 22
14 43 7 20 18 118 25 217 13 194 15 199 76 215 14 4 32 13 40 20 8 7 18 14 23
14 15 1 73 34 96 55 14 12 21 15 17 6 -5 -9 -2 -8 7 3 8 9 18 17 22 17 5 0 20
10 33 23 14 12 22 16 17 8 -5 -9 -4 -12 3 -7 7 4 12 14 12 22 0 9 5 12 12 8 6
-4 8 -3 5 3 -4 6 0 16 8 23 8 7 12 16 9 21 -3 5 0 8 7 7 8 -2 13 11 14 39 1
31 7 47 25 62 14 11 20 20 14 21 -9 0 -100 -51 -327 -185 -92 -54 -126 -65
-97 -30 10 12 10 15 -1 15 -7 0 -3 9 11 22 15 14 19 23 11 26 -8 3 -9 8 -2 15
11 14 18 82 26 227 10 202 0 178 96 237 46 29 88 52 92 53 4 0 35 18 68 40 33
22 62 40 65 40 9 0 90 62 97 76 6 10 2 14 -15 15 -13 1 -36 2 -51 3 -15 2 -30
-1 -33 -6 -3 -4 -9 -6 -14 -3 -5 3 -11 1 -15 -5 -4 -6 -11 -7 -17 -4 -6 4 -13
2 -17 -3 -3 -5 -24 -20 -46 -33 -22 -13 -44 -28 -50 -32 -76 -58 -148 -108
-151 -106 -1 2 3 48 11 103 18 135 30 765 17 870 -6 44 -14 113 -17 153 -7 73
-25 101 -25 38z"/>
<path d="M3238 3204 c6 -12 8 -25 4 -30 -4 -5 0 -3 8 4 12 10 12 15 -4 30 -18
16 -18 16 -8 -4z"/>
<path d="M3385 3131 c-19 -8 -19 -8 2 -20 20 -10 22 -9 16 5 -5 13 -3 15 7 9
9 -5 11 -4 6 3 -4 7 -8 12 -9 11 -1 0 -11 -4 -22 -8z"/>
<path d="M3315 3030 c3 -5 8 -10 11 -10 2 0 4 5 4 10 0 6 -5 10 -11 10 -5 0
-7 -4 -4 -10z"/>
<path d="M5760 3002 c-19 -9 -40 -21 -46 -27 -6 -5 -46 -28 -88 -50 -77 -40
-99 -63 -49 -50 52 13 238 110 238 124 0 21 -16 22 -55 3z"/>
<path d="M3305 2939 c-4 -6 -5 -12 -2 -15 2 -3 7 2 10 11 7 17 1 20 -8 4z"/>
<path d="M3357 2859 c4 -13 8 -18 11 -10 2 7 -1 18 -6 23 -8 8 -9 4 -5 -13z"/>
<path d="M5880 2596 c-126 -45 -285 -122 -288 -140 -7 -36 4 -45 45 -34 21 5
60 14 88 18 57 11 89 22 163 58 60 29 67 46 17 39 -19 -3 -37 -2 -40 2 -2 4 1
8 8 8 21 0 167 47 167 54 0 9 -38 19 -70 18 -14 0 -54 -10 -90 -23z"/>
<path d="M3130 2261 c0 -5 7 -11 15 -15 8 -3 15 -1 15 3 0 5 -7 11 -15 15 -8
3 -15 1 -15 -3z"/>
<path d="M3050 2187 c0 -4 -5 -5 -12 -1 -6 4 -8 3 -5 -3 3 -5 16 -9 29 -7 13
1 26 3 31 3 19 2 4 17 -18 17 -14 0 -25 -4 -25 -9z"/>
<path d="M2719 2023 c-13 -16 -12 -17 4 -4 9 7 17 15 17 17 0 8 -8 3 -21 -13z"/>
<path d="M2737 1939 c4 -13 8 -18 11 -10 2 7 -1 18 -6 23 -8 8 -9 4 -5 -13z"/>
<path d="M5820 1945 c-30 -7 -104 -21 -165 -30 -60 -9 -127 -20 -148 -25 -35
-8 -38 -7 -34 11 8 32 -33 21 -45 -12 -4 -9 -18 -16 -32 -16 -26 0 -56 -18
-56 -34 0 -7 30 -10 110 -10 19 0 46 0 60 0 35 1 58 -4 66 -12 4 -4 12 -3 18
2 21 16 45 20 52 9 4 -6 3 -8 -2 -5 -6 3 -16 2 -24 -3 -9 -6 -2 -8 20 -5 19 2
35 4 35 5 0 3 38 10 65 13 14 2 31 7 39 11 10 7 12 5 6 -5 -5 -8 2 -5 15 6 15
13 21 15 16 5 -4 -8 0 -6 8 4 9 11 16 16 16 11 0 -5 7 0 16 11 8 10 12 12 8 4
-7 -13 -6 -13 10 -1 9 8 14 21 11 29 -4 12 -3 13 10 2 13 -11 14 -10 9 5 -5
12 -4 16 3 12 6 -4 13 1 15 11 6 23 -26 25 -102 7z"/>
<path d="M2775 1939 c-4 -6 -4 -13 -1 -16 3 -4 6 -1 6 6 0 7 5 9 12 5 7 -4 8
-3 4 4 -9 15 -13 15 -21 1z"/>
<path d="M2660 1910 c5 -10 7 -20 3 -23 -11 -12 39 2 53 14 12 10 12 14 2 20
-8 5 -15 1 -20 -12 -4 -11 -13 -17 -19 -14 -6 4 -8 13 -6 19 3 7 -1 13 -8 13
-10 0 -11 -5 -5 -17z"/>
<path d="M2804 1887 c-3 -9 -11 -14 -18 -10 -7 4 -7 1 1 -9 7 -8 10 -19 6 -24
-4 -5 4 1 17 13 19 18 21 26 12 35 -9 9 -13 7 -18 -5z m7 -20 c-10 -9 -11 -8
-5 6 3 10 9 15 12 12 3 -3 0 -11 -7 -18z"/>
<path d="M2630 1872 c0 -15 -5 -20 -15 -16 -9 4 -15 0 -15 -10 0 -22 13 -20
35 4 14 16 16 23 7 32 -9 9 -12 7 -12 -10z"/>
<path d="M2895 1881 c-3 -5 -2 -12 3 -15 5 -3 9 1 9 9 0 17 -3 19 -12 6z"/>
<path d="M2855 1861 c-3 -5 -2 -12 3 -15 5 -3 9 1 9 9 0 17 -3 19 -12 6z"/>
<path d="M4225 1770 c3 -5 8 -10 11 -10 2 0 4 5 4 10 0 6 -5 10 -11 10 -5 0
-7 -4 -4 -10z"/>
<path d="M4254 1734 c5 -14 4 -15 -9 -4 -13 11 -14 10 -9 -4 4 -11 -1 -24 -15
-37 -30 -28 -26 -32 12 -13 36 18 77 53 77 66 0 4 -14 8 -31 8 -25 0 -30 -3
-25 -16z"/>
<path d="M2543 1637 c-57 -11 -71 -27 -24 -27 16 0 36 -3 44 -6 10 -3 18 2 22
15 3 12 11 18 17 15 7 -4 8 -2 4 4 -4 7 -8 11 -9 11 -1 -1 -26 -6 -54 -12z"/>
<path d="M5504 1206 c34 -29 43 -32 90 -29 28 1 61 3 74 3 36 0 15 20 -21 20
-36 1 -122 22 -133 33 -4 4 -17 7 -28 7 -18 -1 -15 -6 18 -34z"/>
<path d="M5200 1020 c0 -5 -3 -9 -7 -8 -15 3 -290 -129 -299 -144 -9 -15 20
-8 53 11 17 11 48 23 67 27 20 3 36 10 36 15 0 5 8 9 19 9 10 0 49 21 87 46
83 55 81 54 61 54 -9 0 -17 -4 -17 -10z"/>
<path d="M4855 850 c-3 -5 -2 -10 4 -10 5 0 13 5 16 10 3 6 2 10 -4 10 -5 0
-13 -4 -16 -10z"/>
<path d="M4519 733 c-13 -17 -13 -17 6 -3 11 8 22 16 24 17 2 2 0 3 -6 3 -6 0
-17 -8 -24 -17z"/>
<path d="M5344 594 c-18 -14 -18 -15 4 -4 12 6 22 13 22 15 0 8 -5 6 -26 -11z"/>
<path d="M4150 570 c8 -5 20 -10 25 -10 6 0 3 5 -5 10 -8 5 -19 10 -25 10 -5
0 -3 -5 5 -10z"/>
<path d="M5290 570 c-13 -8 -13 -10 2 -10 9 0 20 5 23 10 8 13 -5 13 -25 0z"/>
<path d="M4198 548 c5 -5 16 -8 23 -6 8 3 3 7 -10 11 -17 4 -21 3 -13 -5z"/>
<path d="M4975 550 c-4 -6 3 -10 14 -10 25 0 27 6 6 13 -8 4 -17 2 -20 -3z"/>
<path d="M5245 550 c-16 -7 -17 -9 -3 -9 9 -1 20 4 23 9 7 11 7 11 -20 0z"/>
</g>
</svg>
